Indiana Jones 2 Temple Of Doom (1984)       
 
Verenigde Staten
Actie / Avontuur
118 minuten

geregisseerd door Steven Spielberg
met Harrison Ford, Kate Capshaw en Ke Huy Quan

Indiana Jones, Short Round en de betoverende nachtclubzangeres Willie Scott, worden door het noodlot in eenzelfde avontuur samengebracht. Op weg naar India ontsnappen ze op het nippertje aan de dood. Later belanden ze in een kinderloos dorp. Indy belooft het dorpshoofd de heilige Sankarasteen te zullen vinden, die het dorp zijn vruchtbaarheid moet teruggeven.



Regie: Steven Spielberg 
Met: Harrison Ford (Dr. Henry "Indiana" Jones jr.), Kate Capshaw (Willie Scott), Lorraine Doyle (Dancer), Ke Huy Quan (Short round, age 12), Dan Aykroyd (Weber), Amrish Puri (Mola Ram), Roshan Seth (Chattar Lal), Philip Stone (Captain Blumburtt), Roy Chiao (Lao Che), Bhasker Patel (Temple guard) 
Schrijvers: Verhaal: George Lucas; Script: Willard Huyck, Gloria Katz; Muziek: John Williams 

Dit is het fenomenale vervolg op "Raiders of the lost ark" waarin Steven Spielberg zich weer van z'n beste kant laat zien. Wat betreft actie, spanning en mooie plaatjes overtreft het deel 1 (en die was al een spektakelstuk van hoog niveau).
Indiana Jones begeeft zich deze keer in Shanghai om een diamant in handen te krijgen. Die opdracht is echter maar een opstapje voor het grotere werk die Indi, zangeres Willie (Kate Capshaw) en Indi's hulpje Short Round (Jonathan Ke Quan) te verduren krijgen. Het vliegtuig waarmee het drietal ontsnapt, stort neer in de Indiase bergen en ze komen terecht in een dorpje waar het stammenhoofd Indi ziet als hun verlosser die god Shiva heeft gestuurd. De oude man vraagt hem hun kinderen en een machtige steen terug te halen uit het paleis van de Maharadja. Wat volgt is een wervelend avontuur dat zo energiek is dat je als kijker de kans niet krijgt om adem te halen.
Spielberg en z'n productieteam hebben meesterlijk werk afgeleverd. De actiescènes volgen elkaar in rap tempo op, vloeien geniaal in elkaar over en zijn ook zeer goed en duidelijk in beeld gebracht. Er zijn scènes die je niet snel zal vergeten zoals het diner bij de maharadja waar de helden slangen, kevers, ogensoep en apenhersens opgediend krijgen of de achtervolgingsscene met mijnwagentjes in een mijn onder constructie. Harrison Ford met z'n droge humor is in topvorm, het Chinese jochie is een supersidekick, helaas is Kate Capshaw als verwend zangeres enigszins irritant. Dit is Topvermaak met een grote, koeienletter T.


English

Storyline
Set in 1935, a professor, archaeologist, and legendary hero by the name of Indiana Jones is back in action in his newest adventure. But this time he teams up with a night club singer named Wilhelmina "Willie" Scott and a twelve-year-old boy named Short Round. They end up in an Indian small distressed village, where the people believe that evil spirits have taken all their children away after a sacred precious stone was stolen! They also discovered the great mysterious terror surrounding a booby-trapped temple known as the Temple of Doom! Thuggee is beginning to attempt to rise once more, believing that with the power of all five Sankara stones they can rule the world! Now, it's all up to Indiana to put an end to the Thuggee campaign, rescue the lost children, win the girl and conquer the Temple of Doom. 


Spotinformatie 
Categorie : Beeld 
Formaat : DivX 
Bron : Retail
 

Audio ...: Engels
Subs.....: Nederlands (srt) (instelbaar)
Thanks ..: cjdijk

Format                           : AVI
Format/Info                      : Audio Video Interleave
File size                        : 699 MiB
Duration                         : 54mn 9s
Overall bit rate                 : 1 804 Kbps
Writing application              : VirtualDubMod 1.5.4.1 (build 2178/release)
Writing library                  : VirtualDubMod build 2178/release

Video
ID                               : 0
Format                           : MPEG-4 Visual
Format profile                   : Simple@L3
Format settings, BVOP            : Yes
Format settings, QPel            : No
Format settings, GMC             : No warppoints
Format settings, Matrix          : Custom
Codec ID                         : XVID
Codec ID/Hint                    : XviD
Duration                         : 54mn 9s
Bit rate                         : 1 349 Kbps
Width                            : 720 pixels
Height                           : 304 pixels
Display aspect ratio             : 2.35
Frame rate                       : 25.000 fps
Resolution                       : 24 bits
Colorimetry                      : 4:2:0
Scan type                        : Progressive
Bits/(Pixel*Frame)               : 0.247
Stream size                      : 523 MiB (75%)
Writing library                  : XviD 0.0.09 (UTC 2003-03-25)

Audio
ID                               : 1
Format                           : AC-3
Format/Info                      : Audio Coding 3
Codec ID                         : 2000
Duration                         : 54mn 9s
Bit rate mode                    : Constant
Bit rate                         : 448 Kbps
Channel(s)                       : 6 channels
Channel positions                : Front: L C R, Surround: L R, LFE
Sampling rate                    : 48.0 KHz
Video delay                      : 8ms
Stream size                      : 174 MiB (25%)
Alignment                        : Split accross interleaves
Interleave, duration             : 96 ms (2.40 video frames)
Interleave, preload duration     : 96 ms
Language                         : English / English

 
Genre : Actie
Avontuur


Weblink :  http://www.moviemeter.nl/film/318 
Weblink :  http://www.imdb.com/title/tt0087469
  
*****************************************

Brought to you by 
2Lions Team

meer zien??
Kom dan eens kijken op ons Forum 
                   
http://www.2lions-site.nl  

2Lions the site to be for all your Dutch MOVIES and more

******************************************


DON T HIT AND RUN Niet gelijk afhaken als de FILM binnen is blijf seeden. 

Don`t quit after you finished the download, but keep seeding


There are fake torrents from uploaders who use our team name.
Those are not ours, or members from our team.
We 2Lions-Team are not responsible for the fake posts on our name

Wij 2Lions-Team zijn niet verantwoordelijk voor die zieke FAKE posten die op onze naam worden gedaan

Please check our site !!!
To the fakers Get a Live
 
 
 

 
 
 
